<svg width="595" height="842" version="1.1" xmlns="http://www.w3.org/2000/svg" desc="Created with ImageTracer.java version 1.1.2" ><path desc="l 0 p 0" fill="rgb(254,254,254)" stroke="rgb(254,254,254)" stroke-width="1" opacity="1.0" d="M 0.5 0.0 L 595.0 0.5 L 594.5 842.0 L 0.0 841.5 L 0.5 0.0 Z" /><path desc="l 3 p 0" fill="rgb(19,19,19)" stroke="rgb(19,19,19)" stroke-width="1" opacity="1.0" d="M 3.5 5.0 L 81.0 5.5 L 80.5 29.0 L 3.0 28.5 L 3.5 5.0 Z" /><path desc="l 0 p 1" fill="rgb(254,254,254)" stroke="rgb(254,254,254)" stroke-width="1" opacity="1.0" d="M 4.5 6.0 L 80.0 6.5 L 79.5 28.0 L 4.0 27.5 L 4.5 6.0 Z" /><path desc="l 6 p 0" fill="rgb(133,133,133)" stroke="rgb(133,133,133)" stroke-width="1" opacity="1.0" d="M 28.5 11.0 L 30.0 14.5 L 30.0 20.5 L 28.0 21.5 L 29.0 18.5 L 29.0 12.5 L 28.5 11.0 Z" /><path desc="l 3 p 1" fill="rgb(19,19,19)" stroke="rgb(19,19,19)" stroke-width="1" opacity="1.0" d="M 29.5 11.0 L 32.0 11.5 L 32.0 18.5 L 33.0 21.5 L 29.5 22.0 L 30.0 20.5 Q 30.7 13.0 29.5 11.0 Z" /><path desc="l 6 p 1" fill="rgb(133,133,133)" stroke="rgb(133,133,133)" stroke-width="1" opacity="1.0" d="M 33.5 11.0 L 35.0 14.5 L 35.0 20.5 L 33.0 21.5 L 34.0 18.5 L 34.0 12.5 L 33.5 11.0 Z" /><path desc="l 3 p 2" fill="rgb(19,19,19)" stroke="rgb(19,19,19)" stroke-width="1" opacity="1.0" d="M 34.5 11.0 L 37.0 11.5 L 37.0 17.5 L 38.0 21.5 L 34.5 22.0 L 35.0 20.5 Q 35.7 13.0 34.5 11.0 Z" /><path desc="l 6 p 2" fill="rgb(133,133,133)" stroke="rgb(133,133,133)" stroke-width="1" opacity="1.0" d="M 66.5 11.0 L 68.0 14.5 L 68.0 20.5 L 66.0 21.5 L 67.0 18.5 L 67.0 12.5 L 66.5 11.0 Z" /><path desc="l 3 p 3" fill="rgb(19,19,19)" stroke="rgb(19,19,19)" stroke-width="1" opacity="1.0" d="M 67.5 11.0 L 70.0 11.5 L 70.0 18.5 L 71.0 21.5 L 67.5 22.0 L 68.0 20.5 Q 68.7 13.0 67.5 11.0 Z" /><path desc="l 6 p 3" fill="rgb(133,133,133)" stroke="rgb(133,133,133)" stroke-width="1" opacity="1.0" d="M 71.5 11.0 L 73.0 14.5 L 73.0 20.5 L 71.0 21.5 L 72.0 18.5 L 72.0 12.5 L 71.5 11.0 Z" /><path desc="l 3 p 4" fill="rgb(19,19,19)" stroke="rgb(19,19,19)" stroke-width="1" opacity="1.0" d="M 72.5 11.0 L 75.0 11.5 L 75.0 17.5 L 76.0 21.5 L 72.5 22.0 L 73.0 20.5 Q 73.7 13.0 72.5 11.0 Z" /><path desc="l 6 p 4" fill="rgb(133,133,133)" stroke="rgb(133,133,133)" stroke-width="1" opacity="1.0" d="M 11.5 12.0 L 13.0 12.5 L 12.0 19.5 L 13.0 21.5 L 11.5 22.0 L 9.5 19.0 L 11.0 19.5 L 10.5 14.0 L 9.0 14.5 L 11.5 12.0 Z" /><path desc="l 6 p 5" fill="rgb(133,133,133)" stroke="rgb(133,133,133)" stroke-width="1" opacity="1.0" d="M 15.5 12.0 L 17.0 12.5 L 16.5 14.0 L 15.5 12.0 Z" /><path desc="l 6 p 6" fill="rgb(133,133,133)" stroke="rgb(133,133,133)" stroke-width="1" opacity="1.0" d="M 49.5 12.0 L 51.0 12.5 L 50.0 19.5 L 51.0 21.5 L 49.5 22.0 L 47.5 19.0 L 49.0 19.5 L 48.5 14.0 L 47.0 14.5 L 49.5 12.0 Z" /><path desc="l 6 p 7" fill="rgb(133,133,133)" stroke="rgb(133,133,133)" stroke-width="1" opacity="1.0" d="M 53.5 12.0 L 55.0 12.5 L 54.5 14.0 L 53.5 12.0 Z" /><path desc="l 3 p 5" fill="rgb(19,19,19)" stroke="rgb(19,19,19)" stroke-width="1" opacity="1.0" d="M 11.5 13.0 L 11.0 14.5 Q 9.8 19.3 12.0 20.5 L 9.0 18.5 Q 8.3 13.8 11.5 13.0 Z" /><path desc="l 3 p 6" fill="rgb(19,19,19)" stroke="rgb(19,19,19)" stroke-width="1" opacity="1.0" d="M 49.5 13.0 L 49.0 14.5 Q 47.8 19.3 50.0 20.5 L 47.0 18.5 Q 46.3 13.8 49.5 13.0 Z" /><path desc="l 6 p 8" fill="rgb(133,133,133)" stroke="rgb(133,133,133)" stroke-width="1" opacity="1.0" d="M 21.5 14.0 L 23.0 14.5 L 22.5 16.0 L 20.0 15.5 L 21.5 14.0 Z" /><path desc="l 6 p 9" fill="rgb(133,133,133)" stroke="rgb(133,133,133)" stroke-width="1" opacity="1.0" d="M 24.5 14.0 L 27.0 15.5 L 24.0 15.5 L 24.5 14.0 Z" /><path desc="l 6 p 10" fill="rgb(133,133,133)" stroke="rgb(133,133,133)" stroke-width="1" opacity="1.0" d="M 59.5 14.0 L 61.0 14.5 L 60.5 16.0 L 58.0 15.5 L 59.5 14.0 Z" /><path desc="l 6 p 11" fill="rgb(133,133,133)" stroke="rgb(133,133,133)" stroke-width="1" opacity="1.0" d="M 62.5 14.0 L 65.0 15.5 L 62.0 15.5 L 62.5 14.0 Z" /><path desc="l 3 p 7" fill="rgb(19,19,19)" stroke="rgb(19,19,19)" stroke-width="1" opacity="1.0" d="M 21.5 15.0 L 22.5 17.0 L 25.0 16.5 L 25.5 15.0 L 27.0 17.5 L 22.0 18.5 L 21.5 21.0 Q 19.3 20.3 20.0 16.5 L 21.5 15.0 Z" /><path desc="l 0 p 2" fill="rgb(254,254,254)" stroke="rgb(254,254,254)" stroke-width="1" opacity="1.0" d="M 23.5 15.0 L 24.5 17.0 L 22.0 16.5 L 23.5 15.0 Z" /><path desc="l 3 p 8" fill="rgb(19,19,19)" stroke="rgb(19,19,19)" stroke-width="1" opacity="1.0" d="M 59.5 15.0 L 60.5 17.0 L 63.0 16.5 L 63.5 15.0 L 65.0 17.5 L 60.0 18.5 L 59.5 21.0 Q 57.3 20.3 58.0 16.5 L 59.5 15.0 Z" /><path desc="l 0 p 3" fill="rgb(254,254,254)" stroke="rgb(254,254,254)" stroke-width="1" opacity="1.0" d="M 61.5 15.0 L 62.5 17.0 L 60.0 16.5 L 61.5 15.0 Z" /><path desc="l 6 p 12" fill="rgb(133,133,133)" stroke="rgb(133,133,133)" stroke-width="1" opacity="1.0" d="M 26.5 19.0 L 27.0 20.5 L 24.5 22.0 L 26.5 19.0 Z" /><path desc="l 6 p 13" fill="rgb(133,133,133)" stroke="rgb(133,133,133)" stroke-width="1" opacity="1.0" d="M 64.5 19.0 L 65.0 20.5 L 62.5 22.0 L 64.5 19.0 Z" /><path desc="l 6 p 14" fill="rgb(133,133,133)" stroke="rgb(133,133,133)" stroke-width="1" opacity="1.0" d="M 16.5 20.0 L 18.0 20.5 L 15.5 22.0 L 16.5 20.0 Z" /><path desc="l 6 p 15" fill="rgb(133,133,133)" stroke="rgb(133,133,133)" stroke-width="1" opacity="1.0" d="M 20.5 20.0 L 23.0 20.5 L 22.5 22.0 L 20.5 20.0 Z" /><path desc="l 6 p 16" fill="rgb(133,133,133)" stroke="rgb(133,133,133)" stroke-width="1" opacity="1.0" d="M 54.5 20.0 L 56.0 20.5 L 53.5 22.0 L 54.5 20.0 Z" /><path desc="l 6 p 17" fill="rgb(133,133,133)" stroke="rgb(133,133,133)" stroke-width="1" opacity="1.0" d="M 58.5 20.0 L 61.0 20.5 L 60.5 22.0 L 58.5 20.0 Z" /><path desc="l 6 p 18" fill="rgb(133,133,133)" stroke="rgb(133,133,133)" stroke-width="1" opacity="1.0" d="M 28.5 37.0 L 30.0 40.5 L 30.0 46.5 L 28.0 47.5 L 29.0 44.5 L 29.0 38.5 L 28.5 37.0 Z" /><path desc="l 3 p 9" fill="rgb(19,19,19)" stroke="rgb(19,19,19)" stroke-width="1" opacity="1.0" d="M 29.5 37.0 L 32.0 37.5 L 32.0 44.5 L 33.0 47.5 L 29.5 48.0 L 30.0 46.5 Q 30.7 39.0 29.5 37.0 Z" /><path desc="l 6 p 19" fill="rgb(133,133,133)" stroke="rgb(133,133,133)" stroke-width="1" opacity="1.0" d="M 33.5 37.0 L 35.0 40.5 L 35.0 46.5 L 33.0 47.5 L 34.0 44.5 L 34.0 38.5 L 33.5 37.0 Z" /><path desc="l 3 p 10" fill="rgb(19,19,19)" stroke="rgb(19,19,19)" stroke-width="1" opacity="1.0" d="M 34.5 37.0 L 37.0 37.5 L 37.0 43.5 L 38.0 47.5 L 34.5 48.0 L 35.0 46.5 Q 35.7 39.0 34.5 37.0 Z" /><path desc="l 6 p 20" fill="rgb(133,133,133)" stroke="rgb(133,133,133)" stroke-width="1" opacity="1.0" d="M 66.5 37.0 L 68.0 40.5 L 68.0 46.5 L 66.0 47.5 L 67.0 44.5 L 67.0 38.5 L 66.5 37.0 Z" /><path desc="l 3 p 11" fill="rgb(19,19,19)" stroke="rgb(19,19,19)" stroke-width="1" opacity="1.0" d="M 67.5 37.0 L 70.0 37.5 L 70.0 44.5 L 71.0 47.5 L 67.5 48.0 L 68.0 46.5 Q 68.7 39.0 67.5 37.0 Z" /><path desc="l 6 p 21" fill="rgb(133,133,133)" stroke="rgb(133,133,133)" stroke-width="1" opacity="1.0" d="M 71.5 37.0 L 73.0 40.5 L 73.0 46.5 L 71.0 47.5 L 72.0 44.5 L 72.0 38.5 L 71.5 37.0 Z" /><path desc="l 3 p 12" fill="rgb(19,19,19)" stroke="rgb(19,19,19)" stroke-width="1" opacity="1.0" d="M 72.5 37.0 L 75.0 37.5 L 75.0 43.5 L 76.0 47.5 L 72.5 48.0 L 73.0 46.5 Q 73.7 39.0 72.5 37.0 Z" /><path desc="l 6 p 22" fill="rgb(133,133,133)" stroke="rgb(133,133,133)" stroke-width="1" opacity="1.0" d="M 11.5 38.0 L 13.0 38.5 L 12.0 45.5 L 13.0 47.5 L 11.5 48.0 L 9.5 45.0 L 11.0 45.5 L 10.5 40.0 L 9.0 40.5 L 11.5 38.0 Z" /><path desc="l 6 p 23" fill="rgb(133,133,133)" stroke="rgb(133,133,133)" stroke-width="1" opacity="1.0" d="M 15.5 38.0 L 17.0 38.5 L 16.5 40.0 L 15.5 38.0 Z" /><path desc="l 6 p 24" fill="rgb(133,133,133)" stroke="rgb(133,133,133)" stroke-width="1" opacity="1.0" d="M 49.5 38.0 L 51.0 38.5 L 50.0 45.5 L 51.0 47.5 L 49.5 48.0 L 47.5 45.0 L 49.0 45.5 L 48.5 40.0 L 47.0 40.5 L 49.5 38.0 Z" /><path desc="l 6 p 25" fill="rgb(133,133,133)" stroke="rgb(133,133,133)" stroke-width="1" opacity="1.0" d="M 53.5 38.0 L 55.0 38.5 L 54.5 40.0 L 53.5 38.0 Z" /><path desc="l 3 p 13" fill="rgb(19,19,19)" stroke="rgb(19,19,19)" stroke-width="1" opacity="1.0" d="M 11.5 39.0 L 11.0 40.5 Q 9.8 45.3 12.0 46.5 L 9.0 44.5 Q 8.3 39.8 11.5 39.0 Z" /><path desc="l 3 p 14" fill="rgb(19,19,19)" stroke="rgb(19,19,19)" stroke-width="1" opacity="1.0" d="M 49.5 39.0 L 49.0 40.5 Q 47.8 45.3 50.0 46.5 L 47.0 44.5 Q 46.3 39.8 49.5 39.0 Z" /><path desc="l 6 p 26" fill="rgb(133,133,133)" stroke="rgb(133,133,133)" stroke-width="1" opacity="1.0" d="M 21.5 40.0 L 23.0 40.5 L 22.5 42.0 L 20.0 41.5 L 21.5 40.0 Z" /><path desc="l 6 p 27" fill="rgb(133,133,133)" stroke="rgb(133,133,133)" stroke-width="1" opacity="1.0" d="M 24.5 40.0 L 27.0 41.5 L 24.0 41.5 L 24.5 40.0 Z" /><path desc="l 6 p 28" fill="rgb(133,133,133)" stroke="rgb(133,133,133)" stroke-width="1" opacity="1.0" d="M 59.5 40.0 L 61.0 40.5 L 60.5 42.0 L 58.0 41.5 L 59.5 40.0 Z" /><path desc="l 6 p 29" fill="rgb(133,133,133)" stroke="rgb(133,133,133)" stroke-width="1" opacity="1.0" d="M 62.5 40.0 L 65.0 41.5 L 62.0 41.5 L 62.5 40.0 Z" /><path desc="l 3 p 15" fill="rgb(19,19,19)" stroke="rgb(19,19,19)" stroke-width="1" opacity="1.0" d="M 21.5 41.0 L 22.5 43.0 L 25.0 42.5 L 25.5 41.0 L 27.0 43.5 L 22.0 44.5 L 21.5 47.0 Q 19.3 46.3 20.0 42.5 L 21.5 41.0 Z" /><path desc="l 0 p 4" fill="rgb(254,254,254)" stroke="rgb(254,254,254)" stroke-width="1" opacity="1.0" d="M 23.5 41.0 L 24.5 43.0 L 22.0 42.5 L 23.5 41.0 Z" /><path desc="l 3 p 16" fill="rgb(19,19,19)" stroke="rgb(19,19,19)" stroke-width="1" opacity="1.0" d="M 59.5 41.0 L 60.5 43.0 L 63.0 42.5 L 63.5 41.0 L 65.0 43.5 L 60.0 44.5 L 59.5 47.0 Q 57.3 46.3 58.0 42.5 L 59.5 41.0 Z" /><path desc="l 0 p 5" fill="rgb(254,254,254)" stroke="rgb(254,254,254)" stroke-width="1" opacity="1.0" d="M 61.5 41.0 L 62.5 43.0 L 60.0 42.5 L 61.5 41.0 Z" /><path desc="l 6 p 30" fill="rgb(133,133,133)" stroke="rgb(133,133,133)" stroke-width="1" opacity="1.0" d="M 26.5 45.0 L 27.0 46.5 L 24.5 48.0 L 26.5 45.0 Z" /><path desc="l 6 p 31" fill="rgb(133,133,133)" stroke="rgb(133,133,133)" stroke-width="1" opacity="1.0" d="M 64.5 45.0 L 65.0 46.5 L 62.5 48.0 L 64.5 45.0 Z" /><path desc="l 6 p 32" fill="rgb(133,133,133)" stroke="rgb(133,133,133)" stroke-width="1" opacity="1.0" d="M 16.5 46.0 L 18.0 46.5 L 15.5 48.0 L 16.5 46.0 Z" /><path desc="l 6 p 33" fill="rgb(133,133,133)" stroke="rgb(133,133,133)" stroke-width="1" opacity="1.0" d="M 20.5 46.0 L 23.0 46.5 L 22.5 48.0 L 20.5 46.0 Z" /><path desc="l 6 p 34" fill="rgb(133,133,133)" stroke="rgb(133,133,133)" stroke-width="1" opacity="1.0" d="M 54.5 46.0 L 56.0 46.5 L 53.5 48.0 L 54.5 46.0 Z" /><path desc="l 6 p 35" fill="rgb(133,133,133)" stroke="rgb(133,133,133)" stroke-width="1" opacity="1.0" d="M 58.5 46.0 L 61.0 46.5 L 60.5 48.0 L 58.5 46.0 Z" /></svg>